<?xml version="1.0" standalone="no"?>
<!DOCTYPE svg PUBLIC "-//W3C//DTD SVG 1.1//EN" "http://www.w3.org/Graphics/SVG/1.1/DTD/svg11.dtd">
<svg xmlns="http://www.w3.org/2000/svg" xmlns:xlink="http://www.w3.org/1999/xlink" width="810" zoomAndPan="magnify" viewBox="0 0 810 809.999993" height="810" preserveAspectRatio="xMidYMid meet" version="1.0"><defs><clipPath id="458ddf0fc6"><path d="M 26.507812 237 L 783.257812 237 L 783.257812 810 L 26.507812 810 Z M 26.507812 237 " clip-rule="nonzero"/></clipPath><clipPath id="a17bb700fb"><path d="M 67 237 L 391 237 L 391 809 L 67 809 Z M 67 237 " clip-rule="nonzero"/></clipPath><clipPath id="f323eee61f"><path d="M 57.8125 227.632812 L 57.8125 817.546875 L 399.652344 817.546875 L 399.652344 227.632812 Z M 313.9375 668.414062 L 313.9375 671.195312 C 313.9375 671.195312 313.796875 671.335938 313.796875 671.335938 C 312.261719 670.378906 310.679688 669.371094 309.144531 668.414062 C 302.53125 664.242188 295.867188 660.074219 289.25 655.949219 C 254.304688 634.042969 218.160156 611.417969 183.644531 590.277344 C 182.066406 589.269531 180.484375 588.3125 178.851562 587.351562 C 171.328125 582.511719 164.472656 578.101562 157.710938 573.832031 C 156.992188 573.355469 156.273438 572.921875 155.554688 572.445312 C 153.925781 571.390625 152.390625 570.429688 150.808594 569.421875 C 150.808594 568.5625 150.808594 567.699219 150.859375 566.835938 L 150.859375 565.0625 C 150.859375 565.0625 152.199219 564.34375 152.199219 564.34375 C 153.351562 565.0625 154.453125 565.78125 155.652344 566.546875 C 157.378906 567.648438 159.152344 568.753906 160.925781 569.902344 C 167.585938 574.167969 174.585938 578.578125 182.066406 583.375 C 182.640625 583.757812 183.167969 584.042969 183.789062 584.429688 C 219.261719 606.144531 256.414062 629.441406 292.464844 652.066406 C 298.070312 655.566406 303.679688 659.066406 309.289062 662.613281 C 310.871094 663.570312 312.453125 664.578125 314.035156 665.585938 C 314.035156 666.542969 313.988281 667.503906 313.988281 668.460938 Z M 314.179688 655.566406 L 314.179688 656.71875 C 314.179688 656.71875 312.644531 657.628906 312.644531 657.628906 C 311.542969 656.957031 310.441406 656.238281 309.386719 655.566406 C 304.78125 652.738281 300.230469 649.863281 295.675781 646.984375 C 259.003906 623.976562 221.039062 600.152344 185.035156 578.246094 C 184.699219 578.003906 184.269531 577.71875 183.886719 577.476562 C 177.078125 573.066406 170.464844 568.847656 164.183594 564.871094 C 161.355469 563.097656 158.574219 561.273438 155.84375 559.550781 C 154.214844 558.496094 152.679688 557.488281 151.097656 556.480469 L 151.097656 553.652344 C 151.144531 552.789062 151.144531 552.261719 151.144531 551.734375 L 151.144531 550.921875 C 151.144531 550.921875 151.289062 550.726562 151.289062 550.726562 C 152.824219 551.734375 154.308594 552.695312 155.890625 553.699219 C 159.628906 556.050781 163.464844 558.542969 167.394531 561.035156 C 172.765625 564.488281 178.277344 567.984375 183.980469 571.675781 C 185.421875 572.585938 186.808594 573.449219 188.296875 574.410156 C 224.199219 596.363281 262.167969 620.140625 298.933594 643.152344 C 302.433594 645.355469 305.933594 647.609375 309.480469 649.765625 C 311.0625 650.773438 312.644531 651.730469 314.273438 652.738281 C 314.273438 653.695312 314.273438 654.703125 314.273438 655.613281 Z M 314.464844 639.796875 L 314.464844 640.609375 C 314.464844 640.609375 314.371094 642.574219 314.371094 642.574219 L 314.371094 642.671875 C 312.742188 641.710938 311.207031 640.753906 309.671875 639.796875 C 287.429688 625.988281 265.089844 612.136719 243.808594 598.90625 L 194.191406 568.082031 C 190.789062 565.875 187.433594 563.671875 184.078125 561.609375 C 179.621094 558.78125 175.351562 556 171.136719 553.269531 C 165.957031 549.960938 160.925781 546.75 156.082031 543.632812 C 154.453125 542.578125 152.917969 541.574219 151.335938 540.519531 C 151.335938 539.558594 151.335938 538.601562 151.386719 537.59375 L 151.386719 535.4375 C 151.386719 535.4375 151.769531 534.8125 151.769531 534.8125 C 153.253906 535.773438 154.691406 536.730469 156.179688 537.691406 C 162.027344 541.476562 168.066406 545.359375 174.347656 549.386719 C 177.558594 551.398438 180.816406 553.558594 184.222656 555.714844 C 188.535156 558.445312 192.851562 561.273438 197.355469 564.199219 L 246.921875 594.925781 C 267.34375 607.535156 288.582031 620.765625 309.769531 633.945312 C 311.351562 634.90625 312.933594 635.914062 314.515625 636.871094 C 314.515625 637.878906 314.515625 638.835938 314.515625 639.796875 Z M 314.707031 624.214844 L 314.707031 626.898438 C 314.707031 626.898438 314.65625 626.996094 314.65625 626.996094 C 313.078125 626.039062 311.496094 625.03125 309.914062 624.070312 C 297.015625 616.019531 284.171875 608.0625 271.515625 600.199219 L 202.820312 557.582031 C 196.492188 553.414062 190.40625 549.480469 184.414062 545.695312 C 182.351562 544.402344 180.386719 543.15625 178.421875 541.859375 C 170.703125 536.921875 163.367188 532.273438 156.371094 527.671875 C 154.742188 526.617188 153.207031 525.5625 151.625 524.554688 C 151.625 523.738281 151.625 522.878906 151.671875 522.015625 C 151.671875 521.4375 151.769531 519.1875 151.769531 519.1875 L 152.007812 518.800781 C 153.492188 519.808594 154.980469 520.769531 156.515625 521.773438 C 164.421875 527 172.8125 532.320312 181.632812 537.929688 C 182.59375 538.550781 183.550781 539.175781 184.507812 539.796875 C 191.414062 544.207031 198.601562 548.761719 206.082031 553.605469 L 274.679688 596.21875 C 286.328125 603.460938 298.167969 610.792969 310.105469 618.175781 C 311.6875 619.183594 313.21875 620.140625 314.800781 621.101562 L 314.800781 624.214844 Z M 315.042969 608.253906 L 315.042969 611.03125 C 315.042969 611.03125 314.898438 611.128906 314.898438 611.128906 L 310.246094 608.253906 L 209.484375 545.742188 C 200.855469 540.085938 192.660156 534.8125 184.75 529.828125 C 184.699219 529.828125 184.699219 529.78125 184.699219 529.730469 C 174.730469 523.355469 165.382812 517.363281 156.65625 511.46875 C 155.027344 510.414062 153.492188 509.3125 151.914062 508.257812 L 152.007812 502.886719 L 152.246094 502.503906 C 153.734375 503.558594 155.21875 504.566406 156.753906 505.621094 C 165.429688 511.46875 174.730469 517.507812 184.75 523.882812 C 185.804688 524.554688 186.90625 525.273438 187.960938 525.898438 C 195.871094 530.976562 204.066406 536.25 212.648438 541.8125 L 310.34375 602.453125 L 315.089844 605.375 C 315.089844 606.382812 315.089844 607.34375 315.089844 608.253906 Z M 315.328125 592.625 L 315.328125 594.6875 C 315.328125 594.6875 314.945312 595.359375 314.945312 595.359375 C 313.460938 594.445312 311.972656 593.535156 310.535156 592.625 C 277.554688 572.203125 245.246094 552.167969 216.960938 534.667969 C 208.335938 529.011719 200.089844 523.691406 192.179688 518.660156 C 189.734375 517.078125 187.335938 515.542969 184.941406 514.007812 C 174.875 507.585938 165.574219 501.546875 156.992188 495.503906 C 155.363281 494.355469 153.828125 493.25 152.246094 492.101562 C 152.246094 491.285156 152.246094 490.519531 152.246094 489.65625 L 152.246094 487.402344 C 152.246094 487.402344 152.824219 486.445312 152.824219 486.445312 C 154.214844 487.453125 155.601562 488.507812 157.042969 489.511719 C 165.574219 495.554688 174.921875 501.738281 184.988281 508.207031 C 188.34375 510.316406 191.746094 512.570312 195.34375 514.777344 C 203.253906 519.855469 211.496094 525.128906 220.125 530.785156 C 247.449219 547.707031 278.65625 567.027344 310.582031 586.824219 C 312.164062 587.785156 313.746094 588.789062 315.328125 589.75 C 315.328125 590.753906 315.328125 591.714844 315.328125 592.625 Z M 315.519531 579.539062 C 313.9375 578.578125 312.355469 577.574219 310.773438 576.613281 C 280.09375 557.632812 250.277344 539.175781 223.960938 522.925781 C 215.765625 517.554688 207.808594 512.378906 200.089844 507.441406 C 195.007812 504.179688 190.023438 501.066406 185.277344 497.949219 C 175.257812 491.476562 165.863281 485.199219 157.28125 478.726562 C 155.652344 477.527344 154.117188 476.28125 152.582031 475.035156 C 152.582031 474.125 152.582031 473.261719 152.582031 472.398438 L 152.582031 469.953125 C 152.582031 469.953125 153.160156 469.089844 153.160156 469.089844 C 154.546875 470.195312 155.9375 471.296875 157.328125 472.445312 C 165.863281 479.0625 175.210938 485.484375 185.277344 492.003906 C 191.078125 495.839844 197.070312 499.628906 203.203125 503.558594 C 210.96875 508.496094 219.023438 513.578125 227.222656 519.042969 C 252.578125 534.71875 281.292969 552.453125 310.917969 570.8125 C 312.5 571.773438 314.082031 572.78125 315.664062 573.738281 L 315.519531 579.492188 Z M 315.519531 579.539062 " clip-rule="nonzero"/></clipPath><clipPath id="966abd820b"><path d="M 473 183 L 680 183 L 680 810 L 473 810 Z M 473 183 " clip-rule="nonzero"/></clipPath><clipPath id="ce867f5511"><path d="M 463.695312 173.945312 L 463.695312 819.320312 L 688.710938 819.320312 L 688.710938 173.945312 Z M 628.742188 544.402344 L 628.742188 547.039062 C 628.742188 547.039062 628.550781 547.277344 628.550781 547.277344 C 627.015625 546.269531 625.53125 545.261719 623.949219 544.257812 C 612.25 536.777344 599.59375 529.394531 586.269531 521.582031 C 574.859375 514.917969 563.117188 508.113281 551.179688 500.683594 L 495.570312 468.515625 L 472.273438 455.046875 L 468.535156 452.890625 L 468.535156 447.183594 C 468.535156 447.183594 472.273438 449.339844 472.273438 449.339844 L 495.570312 462.8125 L 554.246094 496.703125 C 566.183594 504.132812 577.929688 510.988281 589.289062 517.554688 C 601.367188 524.601562 613.019531 531.410156 624.042969 538.359375 C 625.671875 539.367188 627.207031 540.421875 628.789062 541.429688 C 628.789062 542.386719 628.789062 543.394531 628.742188 544.351562 Z M 628.980469 531.363281 L 628.980469 531.457031 C 627.351562 530.449219 625.816406 529.492188 624.234375 528.484375 C 613.210938 521.582031 601.65625 514.824219 589.769531 507.871094 C 578.503906 501.257812 566.855469 494.449219 555.207031 487.257812 L 495.570312 452.746094 L 472.273438 439.273438 L 468.535156 437.117188 L 468.535156 431.316406 C 468.535156 431.316406 472.226562 433.472656 472.226562 433.472656 L 495.523438 446.992188 L 558.226562 483.328125 C 569.875 490.472656 581.523438 497.277344 592.742188 503.894531 C 603.574219 510.222656 614.167969 516.40625 624.28125 522.683594 C 625.863281 523.691406 627.445312 524.652344 629.027344 525.65625 C 628.980469 528.726562 628.933594 531.410156 628.933594 531.410156 Z M 629.269531 512.378906 L 629.269531 515.0625 C 629.269531 515.0625 629.171875 515.160156 629.171875 515.160156 C 627.589844 514.199219 626.058594 513.195312 624.476562 512.234375 C 608.992188 502.695312 592.546875 493.394531 575.867188 484 C 557.652344 473.695312 538.8125 463.097656 521.121094 452.027344 L 495.570312 437.164062 L 472.273438 423.648438 L 468.535156 421.492188 L 468.535156 415.738281 C 468.535156 415.738281 472.226562 417.894531 472.226562 417.894531 L 495.523438 431.414062 L 524.191406 448 C 541.785156 459.121094 560.621094 469.714844 578.789062 479.972656 C 594.464844 488.746094 609.855469 497.46875 624.523438 506.386719 C 626.152344 507.34375 627.6875 508.398438 629.269531 509.359375 C 629.269531 510.367188 629.269531 511.324219 629.21875 512.332031 Z M 629.554688 497.277344 L 629.554688 500.058594 C 627.972656 499.101562 626.390625 498.140625 624.808594 497.136719 C 616.566406 492.199219 607.9375 487.117188 598.828125 481.699219 C 590.824219 477 582.53125 472.113281 573.851562 466.933594 L 495.574219 421.492188 L 472.273438 407.972656 L 468.535156 405.816406 L 468.535156 400.0625 C 468.535156 400.0625 472.226562 402.21875 472.226562 402.21875 L 495.523438 415.738281 L 576.875 462.957031 C 585.503906 468.179688 593.84375 473.023438 601.847656 477.769531 C 609.902344 482.515625 617.570312 487.019531 624.859375 491.429688 C 626.488281 492.390625 628.023438 493.347656 629.605469 494.304688 L 629.605469 497.277344 Z M 629.796875 481.410156 L 629.796875 484.429688 C 628.214844 483.472656 626.679688 482.5625 625.050781 481.601562 C 619.441406 478.34375 613.6875 474.988281 607.746094 471.535156 C 593.171875 463.003906 578.167969 454.277344 561.773438 444.308594 L 495.621094 405.910156 L 472.324219 392.394531 L 468.582031 390.234375 L 468.582031 384.53125 C 468.582031 384.53125 472.273438 386.6875 472.273438 386.6875 L 495.570312 400.207031 L 564.792969 440.425781 C 581.1875 450.347656 596.238281 459.121094 610.765625 467.558594 C 615.703125 470.433594 620.449219 473.214844 625.144531 475.996094 C 626.777344 476.953125 628.308594 477.863281 629.890625 478.773438 C 629.890625 479.636719 629.890625 480.546875 629.84375 481.460938 Z M 630.082031 464.96875 L 630.082031 466.261719 C 630.082031 466.933594 630.035156 468.757812 630.035156 469.042969 C 628.453125 468.132812 626.917969 467.175781 625.289062 466.261719 C 621.886719 464.25 618.433594 462.1875 614.839844 460.128906 C 602.136719 452.746094 588.761719 444.835938 574.476562 436.253906 L 495.523438 390.378906 L 472.226562 376.859375 L 468.488281 374.703125 L 468.488281 370.292969 L 469.636719 369.621094 L 472.226562 371.109375 L 495.523438 384.625 L 577.496094 432.226562 C 591.78125 440.90625 605.253906 448.671875 617.859375 456.101562 C 620.398438 457.585938 622.894531 459.023438 625.386719 460.511719 C 626.96875 461.46875 628.550781 462.378906 630.132812 463.292969 C 630.132812 463.820312 630.132812 464.441406 630.132812 464.921875 Z M 630.273438 454.375 L 628.644531 455.476562 C 627.589844 454.855469 626.585938 454.277344 625.480469 453.65625 C 623.898438 452.746094 622.414062 451.882812 620.832031 450.972656 C 608.273438 443.542969 594.851562 435.679688 580.46875 427.050781 L 495.523438 377.722656 L 472.226562 364.15625 L 468.488281 362 L 468.488281 356.25 C 468.488281 356.25 472.179688 358.355469 472.179688 358.355469 L 495.476562 371.921875 L 583.441406 423.023438 C 597.871094 431.75 611.246094 439.5625 623.804688 446.898438 C 624.378906 447.234375 624.90625 447.566406 625.53125 447.902344 C 627.160156 448.863281 628.691406 449.773438 630.273438 450.683594 Z M 630.273438 454.375 " clip-rule="nonzero"/></clipPath></defs><path fill="#5543c1" d="M 390.109375 807.957031 L 67.398438 807.957031 C 77.753906 804.699219 94.4375 806.519531 117.253906 774.449219 C 140.648438 741.515625 154.597656 695.066406 153.445312 685.429688 C 154.117188 650.199219 154.742188 614.867188 155.460938 579.585938 C 155.460938 577.71875 155.460938 575.800781 155.554688 573.929688 C 155.554688 573.449219 155.554688 572.921875 155.601562 572.445312 C 155.554688 570.671875 155.601562 568.894531 155.699219 567.121094 L 155.699219 566.59375 C 155.699219 564.871094 155.699219 563.144531 155.796875 561.371094 C 155.796875 560.746094 155.796875 560.125 155.796875 559.546875 C 155.796875 557.582031 155.84375 555.617188 155.84375 553.652344 C 155.84375 552.980469 155.84375 552.359375 155.84375 551.734375 C 155.890625 549.816406 155.890625 547.898438 155.988281 545.984375 C 155.988281 545.214844 155.988281 544.449219 155.988281 543.730469 C 155.988281 541.8125 156.035156 539.796875 156.082031 537.832031 C 156.082031 537.304688 156.128906 536.777344 156.128906 536.25 C 156.128906 534.382812 156.128906 532.417969 156.226562 530.546875 C 156.226562 529.636719 156.226562 528.726562 156.226562 527.8125 C 156.226562 525.847656 156.273438 523.835938 156.324219 521.917969 C 156.324219 521.488281 156.371094 521.101562 156.371094 520.671875 C 156.371094 518.800781 156.371094 516.886719 156.464844 515.015625 C 156.464844 513.863281 156.464844 512.761719 156.464844 511.613281 C 156.464844 509.644531 156.464844 507.679688 156.5625 505.761719 L 156.5625 505.378906 C 156.609375 503.460938 156.609375 501.59375 156.707031 499.675781 C 156.707031 498.332031 156.753906 496.992188 156.800781 495.648438 C 156.800781 493.730469 156.851562 491.765625 156.898438 489.800781 L 156.898438 489.65625 C 156.898438 487.785156 156.945312 485.917969 156.945312 484.046875 C 156.945312 482.320312 156.945312 480.691406 157.042969 478.964844 C 157.042969 476.90625 157.136719 474.75 157.136719 472.6875 C 158.046875 425.277344 158.957031 377.722656 159.871094 330.3125 C 159.820312 329.882812 159.773438 329.453125 159.679688 329.019531 C 159.484375 327.535156 159.246094 325.953125 158.863281 324.128906 C 158.480469 322.117188 158 319.910156 157.328125 317.5625 C 157.183594 317.035156 157.042969 316.507812 156.898438 315.933594 C 156.609375 314.972656 156.324219 314.0625 156.035156 313.058594 C 155.84375 312.480469 155.699219 311.90625 155.460938 311.332031 C 154.882812 309.414062 154.164062 307.351562 153.253906 305.292969 C 153.015625 304.667969 152.726562 303.996094 152.488281 303.375 C 152.152344 302.558594 151.769531 301.742188 151.386719 300.976562 C 151.097656 300.355469 150.859375 299.683594 150.523438 299.105469 C 149.609375 297.140625 148.554688 295.082031 147.453125 293.019531 C 147.167969 292.539062 146.878906 292.011719 146.589844 291.53125 C 146.0625 290.621094 145.535156 289.757812 144.914062 288.847656 C 144.625 288.371094 144.339844 287.9375 144.050781 287.457031 C 142.804688 285.492188 141.414062 283.433594 139.929688 281.417969 C 139.640625 281.035156 139.351562 280.652344 139.066406 280.269531 C 138.347656 279.308594 137.578125 278.398438 136.8125 277.441406 C 136.765625 277.441406 136.765625 277.441406 136.765625 277.441406 C 136.523438 277.152344 136.285156 276.816406 135.996094 276.527344 C 134.078125 274.226562 132.164062 272.023438 130.054688 269.960938 C 130.003906 269.960938 129.957031 269.867188 129.910156 269.816406 C 128.757812 268.570312 127.558594 267.46875 126.3125 266.269531 C 124.683594 264.6875 123.054688 263.25 121.375 261.90625 C 120.511719 261.140625 119.601562 260.421875 118.738281 259.800781 C 118.261719 259.414062 117.828125 259.03125 117.300781 258.695312 C 122.480469 256.011719 127.800781 253.519531 133.3125 251.3125 C 140.886719 248.199219 148.652344 245.65625 156.800781 243.644531 C 171.46875 239.472656 186.042969 237.507812 200.472656 237.460938 C 200.472656 237.460938 200.566406 237.460938 200.566406 237.460938 C 211.304688 238.851562 222.042969 241.054688 232.6875 243.933594 C 234.746094 244.699219 236.808594 245.515625 238.964844 246.375 L 239.015625 246.375 C 246.492188 249.445312 254.160156 253.472656 261.832031 258.550781 C 262.070312 258.695312 262.3125 258.886719 262.550781 259.078125 C 266.003906 261.378906 269.359375 263.921875 272.808594 266.75 C 273.625 267.421875 274.4375 268.140625 275.207031 268.8125 C 275.253906 268.8125 275.253906 268.8125 275.253906 268.8125 C 276.453125 269.867188 277.601562 270.871094 278.707031 271.925781 C 282.011719 274.996094 284.984375 278.160156 287.71875 281.324219 C 288.484375 282.234375 289.300781 283.144531 289.96875 284.054688 C 292.273438 286.929688 294.382812 289.757812 296.25 292.636719 C 297.066406 293.929688 297.878906 295.175781 298.648438 296.421875 C 300.324219 299.058594 301.714844 301.648438 303.058594 304.285156 C 303.441406 305.003906 303.777344 305.722656 304.113281 306.394531 C 305.359375 308.933594 306.460938 311.425781 307.417969 313.777344 C 307.804688 314.832031 308.1875 315.789062 308.570312 316.796875 C 309.433594 319.191406 310.246094 321.492188 310.871094 323.601562 C 311.109375 324.320312 311.300781 325.042969 311.496094 325.710938 C 312.117188 328.0625 312.644531 330.265625 313.125 332.28125 C 313.316406 333.09375 313.460938 333.910156 313.605469 334.628906 C 314.082031 337.023438 314.371094 339.132812 314.660156 340.765625 C 314.753906 341.628906 314.800781 342.347656 314.851562 342.921875 L 314.851562 343.210938 C 314.800781 345.078125 314.753906 346.996094 314.753906 348.867188 L 314.753906 350.542969 C 314.707031 352.414062 314.660156 354.234375 314.609375 356.105469 C 314.609375 356.726562 314.609375 357.398438 314.609375 357.972656 C 314.609375 359.84375 314.5625 361.761719 314.515625 363.628906 L 314.515625 364.925781 C 314.464844 366.746094 314.417969 368.617188 314.371094 370.484375 C 313.171875 437.261719 311.925781 504.132812 310.726562 570.957031 C 310.726562 571.820312 310.726562 572.683594 310.726562 573.5 C 310.679688 574.601562 310.679688 575.609375 310.632812 576.710938 C 310.632812 577.523438 310.582031 578.339844 310.582031 579.105469 C 310.582031 581.695312 310.582031 584.285156 310.488281 586.871094 C 310.488281 587.59375 310.488281 588.359375 310.488281 589.03125 C 310.441406 590.277344 310.441406 591.425781 310.441406 592.671875 C 310.441406 593.34375 310.441406 594.0625 310.441406 594.734375 C 310.34375 597.324219 310.296875 599.910156 310.296875 602.5 C 310.296875 603.125 310.296875 603.746094 310.296875 604.320312 C 310.296875 605.664062 310.296875 606.957031 310.296875 608.300781 C 310.296875 608.875 310.25 609.449219 310.25 610.027344 L 310.105469 618.269531 C 310.105469 618.796875 310.054688 619.277344 310.054688 619.804688 C 310.054688 621.292969 310.054688 622.683594 309.960938 624.167969 L 309.960938 625.511719 C 309.863281 628.339844 309.863281 631.214844 309.816406 634.089844 L 309.816406 635.191406 C 309.769531 636.824219 309.722656 638.355469 309.722656 639.988281 C 309.671875 640.273438 309.671875 640.609375 309.671875 640.945312 C 309.671875 643.917969 309.578125 646.84375 309.480469 649.863281 L 309.480469 650.726562 C 309.480469 652.402344 309.480469 654.082031 309.480469 655.757812 L 309.480469 656.429688 C 309.433594 658.539062 309.386719 660.695312 309.335938 662.804688 L 309.335938 663.285156 C 309.289062 665.058594 309.242188 666.878906 309.242188 668.605469 L 309.242188 668.894531 C 309.097656 674.933594 309.050781 681.070312 308.90625 687.109375 C 308.617188 699.238281 309.769531 739.984375 347.160156 775.839844 C 362.257812 790.414062 378.03125 803.210938 390.207031 808.148438 Z M 390.109375 807.957031 " fill-opacity="1" fill-rule="nonzero"/><path fill="#5543c1" d="M 679.121094 794.582031 C 677.589844 795.160156 676.152344 795.78125 674.617188 796.355469 C 663.878906 800.480469 652.902344 803.644531 641.921875 805.847656 C 629.363281 808.390625 616.757812 809.730469 604.53125 809.730469 C 602.949219 809.730469 601.464844 809.730469 599.929688 809.683594 C 597.054688 809.683594 594.226562 809.539062 591.398438 809.347656 C 556.691406 807.429688 522.65625 796.023438 479.371094 772.292969 C 477.691406 771.335938 476.109375 770.421875 474.433594 769.417969 C 474.046875 769.226562 473.234375 768.699219 473.234375 768.699219 L 473.234375 185.542969 C 473.570312 185.066406 474 184.683594 474.433594 184.347656 C 475.292969 183.820312 476.347656 183.484375 477.402344 183.484375 L 504.007812 183.484375 C 515.324219 184.25 553 188.230469 585.835938 217.804688 C 621.980469 250.453125 627.0625 291.484375 627.972656 301.167969 C 627.972656 301.167969 627.972656 301.214844 627.972656 301.265625 C 627.351562 340.332031 626.679688 379.355469 626.007812 418.375 C 626.007812 420.339844 625.914062 422.449219 625.863281 424.460938 C 625.863281 426.859375 625.863281 429.351562 625.722656 431.796875 C 625.722656 433.808594 625.671875 435.824219 625.671875 437.835938 C 625.671875 441.191406 625.578125 444.5 625.480469 447.855469 L 625.480469 448.191406 C 625.480469 450.011719 625.480469 451.785156 625.386719 453.558594 L 625.386719 454.328125 C 625.386719 456.386719 625.289062 458.449219 625.289062 460.464844 C 625.289062 461.949219 625.195312 463.433594 625.195312 464.921875 L 625.195312 466.214844 C 625.195312 467.84375 625.195312 469.476562 625.097656 471.152344 C 625.097656 472.78125 625.097656 474.316406 625.003906 475.945312 C 625.003906 477.671875 625.003906 479.492188 624.90625 481.269531 L 624.90625 481.601562 C 624.90625 483.570312 624.859375 485.582031 624.808594 487.59375 C 624.808594 488.890625 624.808594 490.089844 624.808594 491.382812 C 624.808594 493.25 624.808594 495.21875 624.714844 497.085938 L 624.714844 498.667969 C 624.714844 500.730469 624.617188 502.886719 624.570312 504.996094 C 624.570312 505.476562 624.570312 505.957031 624.523438 506.433594 C 624.523438 508.351562 624.523438 510.316406 624.425781 512.234375 C 624.425781 513.480469 624.425781 514.632812 624.425781 515.878906 C 624.425781 517.941406 624.378906 520.097656 624.332031 522.207031 L 624.332031 522.636719 C 624.28125 524.554688 624.28125 526.566406 624.234375 528.484375 C 624.140625 531.792969 624.042969 535.054688 624.042969 538.3125 C 624.042969 540.277344 623.996094 542.292969 623.949219 544.257812 C 623.851562 551.015625 623.753906 557.773438 623.613281 564.582031 C 623.035156 601.683594 622.414062 638.882812 621.742188 676.035156 C 621.648438 680.351562 621.597656 688.644531 622.941406 699.1875 C 623.132812 700.820312 623.421875 702.449219 623.660156 704.222656 C 624.089844 707.003906 624.667969 709.925781 625.386719 712.996094 C 625.769531 714.625 626.105469 716.207031 626.585938 717.882812 C 627.113281 720.1875 627.78125 722.628906 628.597656 725.027344 C 628.742188 725.601562 628.933594 726.179688 629.125 726.753906 C 629.414062 727.664062 629.699219 728.527344 630.035156 729.484375 C 630.226562 730.15625 630.46875 730.828125 630.707031 731.449219 C 631.425781 733.417969 632.242188 735.476562 633.105469 737.492188 C 633.34375 738.160156 633.632812 738.832031 633.917969 739.457031 C 634.253906 740.269531 634.636719 741.039062 634.972656 741.804688 C 635.308594 742.574219 635.644531 743.292969 636.027344 744.011719 C 636.9375 745.929688 637.945312 747.941406 639 749.859375 C 639.527344 750.816406 640.054688 751.726562 640.628906 752.6875 C 640.871094 753.167969 641.15625 753.597656 641.445312 754.078125 C 641.972656 755.082031 642.59375 756.089844 643.265625 757.097656 C 644.128906 758.488281 645.039062 759.78125 646 761.171875 C 646.71875 762.324219 647.53125 763.378906 648.347656 764.527344 C 648.539062 764.765625 648.683594 765.054688 648.875 765.292969 C 649.738281 766.492188 650.648438 767.59375 651.558594 768.699219 C 652.660156 770.183594 653.859375 771.527344 655.058594 772.964844 C 655.347656 773.300781 655.632812 773.683594 655.921875 774.019531 C 656.738281 774.976562 657.597656 775.839844 658.511719 776.800781 C 658.703125 776.992188 658.894531 777.230469 659.085938 777.421875 C 659.230469 777.566406 659.421875 777.804688 659.613281 777.996094 C 661.433594 779.820312 663.207031 781.59375 665.03125 783.222656 C 666.371094 784.515625 667.667969 785.667969 668.960938 786.816406 C 670.828125 788.398438 672.652344 789.839844 674.519531 791.277344 C 676.054688 792.425781 677.542969 793.480469 679.027344 794.582031 Z M 679.121094 794.582031 " fill-opacity="1" fill-rule="nonzero"/><g clip-path="url(#458ddf0fc6)"><path fill="#b2b19f" d="M 773.894531 589.941406 L 773.464844 588.742188 C 748.535156 524.554688 705.824219 495.3125 642.59375 457.875 C 637.082031 454.664062 631.472656 451.355469 625.625 447.902344 C 625.050781 447.566406 624.523438 447.234375 623.898438 446.898438 C 611.339844 439.5625 597.964844 431.699219 583.535156 423.023438 L 495.574219 371.921875 L 472.273438 358.355469 L 460.050781 351.261719 C 439.292969 339.996094 418.488281 327.675781 398.070312 315.40625 C 350.324219 286.835938 304.113281 259.222656 257.660156 245.753906 C 238.773438 240.335938 219.839844 237.125 200.761719 237.21875 C 200.761719 237.21875 200.710938 237.21875 200.664062 237.21875 C 186.234375 237.21875 171.664062 239.234375 156.992188 243.40625 C 148.84375 245.371094 141.03125 247.957031 133.503906 251.074219 C 127.992188 253.28125 122.671875 255.773438 117.492188 258.457031 C 52.777344 292.15625 15.484375 362.910156 29.433594 434.671875 L 29.722656 436.0625 C 30.96875 441.242188 32.453125 446.273438 34.082031 451.019531 C 53.066406 506.484375 93.910156 533.085938 155.601562 572.445312 C 156.273438 572.921875 157.042969 573.355469 157.761719 573.835938 C 164.472656 578.101562 171.375 582.558594 178.851562 587.351562 C 180.484375 588.3125 182.066406 589.269531 183.644531 590.277344 C 218.160156 611.417969 254.304688 634.089844 289.25 655.949219 C 295.867188 660.121094 302.53125 664.292969 309.144531 668.414062 C 316.289062 672.824219 323.335938 677.234375 330.476562 681.691406 C 378.03125 711.414062 426.0625 740.992188 471.746094 767.738281 C 474.335938 769.273438 476.875 770.757812 479.464844 772.246094 C 522.703125 795.972656 556.738281 807.382812 591.496094 809.300781 C 594.324219 809.492188 597.152344 809.589844 600.027344 809.636719 C 601.5625 809.683594 603.046875 809.683594 604.628906 809.683594 C 616.851562 809.683594 629.460938 808.339844 642.019531 805.800781 C 652.996094 803.597656 663.976562 800.433594 674.710938 796.308594 C 676.246094 795.734375 677.683594 795.109375 679.21875 794.535156 C 682.285156 793.242188 685.355469 791.898438 688.375 790.460938 C 729.984375 770.949219 765.265625 737.105469 777.394531 691.710938 C 786.695312 659.738281 785.496094 623.542969 773.988281 589.84375 Z M 772.167969 690.894531 C 760.664062 733.945312 727.539062 766.253906 688.277344 785.285156 C 683.773438 787.441406 679.265625 789.453125 674.617188 791.277344 C 673.464844 791.707031 672.269531 792.1875 671.117188 792.617188 C 656.160156 798.226562 640.582031 801.964844 625.335938 803.789062 C 616.902344 804.84375 608.511719 805.226562 600.363281 804.984375 C 591.300781 804.890625 582.339844 804.074219 573.277344 802.683594 C 545.523438 798.179688 516.953125 787.25 482.390625 768.265625 C 478.84375 766.253906 475.246094 764.144531 471.699219 762.035156 C 425.96875 735.332031 378.03125 705.613281 330.523438 675.988281 C 323.382812 671.53125 316.289062 667.121094 309.191406 662.710938 C 303.585938 659.160156 297.976562 655.664062 292.367188 652.164062 C 256.320312 629.535156 219.167969 606.238281 183.695312 584.523438 C 183.117188 584.140625 182.59375 583.851562 181.96875 583.46875 C 174.492188 578.628906 167.539062 574.265625 160.875 570 C 159.101562 568.847656 157.328125 567.746094 155.601562 566.644531 C 96.402344 528.871094 57.1875 502.601562 39.070312 449.484375 C 37.488281 444.835938 36.046875 439.945312 34.800781 434.960938 L 34.515625 433.667969 C 20.851562 363.488281 57.714844 294.167969 121.375 261.714844 C 126.839844 258.984375 132.449219 256.445312 138.25 254.238281 C 144.625 251.792969 151.335938 249.683594 158.144531 248.007812 C 185.371094 240.191406 212.167969 240.527344 239.0625 246.234375 L 239.109375 246.234375 C 254.496094 249.492188 269.933594 254.527344 285.367188 260.804688 C 321.464844 275.617188 357.847656 297.332031 395.191406 319.671875 C 415.375 331.753906 436.179688 344.121094 456.984375 355.386719 L 472.132812 364.15625 L 495.429688 377.722656 L 580.371094 427.050781 C 594.753906 435.726562 608.175781 443.542969 620.734375 450.972656 C 622.316406 451.882812 623.804688 452.746094 625.386719 453.65625 C 631.1875 457.058594 636.84375 460.367188 642.308594 463.628906 C 703.140625 499.675781 744.316406 528.675781 768.332031 590.46875 L 768.71875 591.570312 C 779.980469 624.503906 781.132812 659.738281 772.074219 690.945312 Z M 772.167969 690.894531 " fill-opacity="1" fill-rule="nonzero"/></g><path fill="#b2b19f" d="M 763.011719 593.25 C 763.011719 593.25 762.867188 592.816406 762.773438 592.578125 C 739.859375 533.664062 700.40625 505.140625 642.257812 470.578125 C 636.84375 467.316406 631.1875 463.960938 625.386719 460.558594 C 622.894531 459.074219 620.398438 457.636719 617.859375 456.148438 C 605.253906 448.71875 591.78125 440.90625 577.496094 432.277344 L 495.523438 384.675781 L 472.226562 371.15625 L 454.296875 360.707031 C 433.253906 349.25 412.210938 336.738281 391.933594 324.609375 C 361.300781 306.296875 331.292969 288.371094 301.621094 274.46875 C 288.628906 268.378906 275.734375 263.058594 262.789062 258.839844 C 228.46875 247.574219 194.382812 244.027344 159.820312 253.808594 C 154.5 255.148438 149.371094 256.636719 144.386719 258.503906 C 138.203125 260.660156 132.257812 263.203125 126.503906 266.03125 C 63.851562 296.804688 27.277344 364.253906 40.601562 432.5625 L 40.84375 433.570312 C 41.992188 438.363281 43.335938 442.964844 44.820312 447.425781 C 62.078125 497.804688 100.332031 524.027344 155.796875 559.546875 C 158.527344 561.324219 161.308594 563.097656 164.136719 564.871094 C 170.414062 568.894531 177.03125 573.113281 183.839844 577.476562 C 184.222656 577.71875 184.652344 578.003906 184.988281 578.246094 C 220.988281 600.199219 258.957031 623.976562 295.628906 646.984375 C 300.179688 649.8125 304.734375 652.691406 309.335938 655.566406 C 316.382812 660.023438 323.527344 664.433594 330.667969 668.894531 C 378.175781 698.613281 426.113281 728.285156 471.699219 754.941406 C 476.253906 757.625 480.710938 760.214844 485.21875 762.847656 C 510.480469 776.75 532.4375 786.289062 553.097656 792.042969 C 568.386719 796.261719 583.007812 798.417969 597.820312 798.800781 C 598.636719 798.800781 599.5 798.800781 600.316406 798.800781 C 621.933594 799.425781 644.945312 795.542969 666.898438 787.585938 C 667.617188 787.34375 668.335938 787.058594 669.054688 786.769531 C 675.574219 784.375 682.046875 781.496094 688.277344 778.382812 C 724.902344 759.878906 755.488281 729.292969 766.320312 688.929688 C 775.042969 658.96875 773.894531 624.984375 763.011719 593.152344 Z M 761.191406 688.066406 C 750.980469 726.128906 722.601562 755.179688 688.277344 773.15625 C 680.800781 777.039062 673.035156 780.441406 665.125 783.269531 C 664.695312 783.460938 664.308594 783.605469 663.878906 783.75 C 643.074219 791.179688 621.214844 794.726562 600.746094 794.199219 C 590.488281 794.054688 580.421875 793 570.066406 791.035156 C 560.8125 789.3125 551.324219 786.722656 541.542969 783.320312 C 525.148438 777.710938 507.652344 769.65625 488.238281 758.917969 C 482.773438 755.753906 477.261719 752.542969 471.746094 749.285156 C 426.113281 722.535156 378.175781 692.765625 330.765625 663.09375 C 323.621094 658.683594 316.527344 654.273438 309.433594 649.765625 C 305.933594 647.609375 302.433594 645.355469 298.886719 643.152344 C 262.121094 620.140625 224.105469 596.316406 188.25 574.410156 C 186.761719 573.449219 185.371094 572.585938 183.933594 571.675781 C 178.230469 567.984375 172.714844 564.484375 167.347656 561.035156 C 163.417969 558.542969 159.582031 556.050781 155.84375 553.699219 C 96.257812 515.542969 59.921875 489.511719 45.921875 432.46875 L 45.78125 431.605469 C 32.789062 364.972656 68.695312 299.203125 130.003906 269.675781 C 135.949219 266.796875 142.179688 264.304688 148.652344 262.101562 C 152.632812 260.710938 156.800781 259.558594 160.972656 258.503906 C 199.082031 247.671875 236.90625 253.808594 275.398438 268.667969 L 275.445312 268.667969 C 286.949219 273.171875 298.550781 278.398438 310.199219 284.246094 C 336.039062 297.046875 362.164062 312.722656 388.816406 328.636719 C 409.191406 340.8125 430.234375 353.371094 451.328125 364.828125 L 472.179688 376.957031 L 495.476562 390.476562 L 574.429688 436.351562 C 588.714844 444.980469 602.136719 452.839844 614.792969 460.222656 C 618.339844 462.285156 621.789062 464.347656 625.242188 466.359375 C 631.042969 469.714844 636.699219 473.070312 642.164062 476.332031 C 697.816406 509.695312 735.738281 537.785156 757.691406 594.304688 C 757.789062 594.542969 757.882812 594.78125 757.882812 594.972656 C 768.523438 625.894531 769.628906 658.96875 761.144531 688.117188 Z M 761.191406 688.066406 " fill-opacity="1" fill-rule="nonzero"/><path fill="#b2b19f" d="M 750.164062 598.234375 C 750.070312 597.945312 749.972656 597.660156 749.878906 597.371094 C 728.976562 544.160156 693.550781 517.027344 642.019531 485.964844 C 636.554688 482.65625 630.898438 479.351562 625.097656 475.945312 C 620.398438 473.214844 615.65625 470.433594 610.71875 467.511719 C 596.191406 459.023438 581.140625 450.300781 564.746094 440.378906 L 495.523438 400.160156 L 472.226562 386.640625 L 400.800781 345.125 C 384.839844 336.304688 370.359375 327.964844 356.410156 319.910156 C 343.851562 312.578125 332.011719 305.820312 320.648438 299.585938 C 310.105469 293.785156 300.085938 288.464844 290.210938 283.816406 C 249.800781 264.738281 212.886719 256.109375 165.046875 266.078125 C 161.980469 266.796875 158.910156 267.660156 155.9375 268.523438 C 149.132812 270.585938 142.515625 273.222656 136.1875 276.242188 C 78.761719 303.46875 42.375 366.601562 53.6875 426.957031 L 53.882812 427.867188 C 54.984375 432.804688 56.375 437.40625 57.859375 441.863281 C 73.34375 487.164062 107.28125 512.042969 156.179688 543.585938 C 161.066406 546.703125 166.101562 549.914062 171.230469 553.222656 C 175.402344 555.90625 179.714844 558.6875 184.171875 561.5625 C 187.480469 563.625 190.835938 565.828125 194.289062 568.035156 L 243.902344 598.855469 C 265.234375 612.085938 287.574219 625.941406 309.769531 639.746094 C 316.910156 644.15625 323.957031 648.566406 331.050781 652.929688 C 363.699219 673.113281 395.382812 692.863281 422.898438 709.878906 C 427.695312 712.804688 432.488281 715.824219 437.328125 718.746094 C 448.785156 725.792969 460.289062 732.9375 471.84375 739.695312 C 489.003906 749.8125 506.308594 759.207031 523.757812 766.828125 C 524.429688 767.164062 525.054688 767.453125 525.773438 767.738281 C 550.941406 778.667969 576.347656 785.714844 601.800781 785.621094 C 621.742188 785.714844 640.917969 782.648438 658.703125 776.800781 C 658.84375 776.800781 658.941406 776.703125 659.085938 776.65625 C 669.441406 773.203125 679.21875 768.792969 688.375 763.570312 C 703.140625 754.988281 716.273438 744.203125 727.109375 731.257812 C 758.171875 694.445312 766.609375 645.929688 750.261719 598.1875 Z M 722.890625 728.621094 C 713.0625 740.222656 701.414062 750.097656 688.328125 758.054688 C 678.5 764 667.808594 768.890625 656.542969 772.628906 C 656.113281 772.773438 655.683594 772.917969 655.15625 773.058594 C 638.519531 778.382812 620.59375 781.113281 601.945312 781.015625 C 574.1875 781.160156 546.242188 772.292969 518.484375 759.253906 C 516.089844 758.105469 513.644531 757 511.246094 755.753906 C 498.015625 749.234375 484.835938 741.804688 471.699219 734.039062 C 461.203125 727.808594 450.75 721.382812 440.347656 714.914062 C 435.460938 711.941406 430.617188 708.96875 425.824219 706.042969 C 397.542969 688.5 364.703125 668.125 331.003906 647.175781 C 323.910156 642.765625 316.816406 638.355469 309.722656 633.996094 C 288.484375 620.8125 267.296875 607.628906 246.875 594.972656 L 197.308594 564.246094 C 192.800781 561.371094 188.488281 558.542969 184.171875 555.761719 C 180.816406 553.605469 177.558594 551.449219 174.347656 549.433594 C 168.066406 545.40625 162.027344 541.523438 156.179688 537.738281 C 105.125 504.660156 71.234375 478.582031 58.960938 426.859375 L 58.820312 426.042969 C 47.746094 367.464844 83.363281 306.105469 139.207031 280.125 C 145.726562 277.105469 152.535156 274.5625 159.535156 272.503906 C 161.691406 271.832031 163.894531 271.257812 166.003906 270.730469 C 215.574219 260.421875 253.492188 270.921875 296.488281 292.445312 C 305.644531 297.09375 315.089844 302.175781 324.867188 307.6875 C 333.929688 312.769531 343.46875 318.234375 353.34375 323.9375 C 367.339844 332.039062 381.816406 340.332031 397.78125 349.152344 L 472.179688 392.441406 L 495.476562 405.957031 L 561.628906 444.355469 C 578.023438 454.328125 593.027344 463.101562 607.601562 471.585938 C 613.546875 475.035156 619.296875 478.390625 624.90625 481.652344 C 630.753906 485.101562 636.410156 488.457031 641.875 491.765625 C 690.914062 521.582031 724.757812 548.332031 744.796875 599.097656 C 744.890625 599.382812 744.988281 599.625 745.085938 599.910156 C 760.855469 646.121094 752.800781 693.003906 722.792969 728.621094 Z M 722.890625 728.621094 " fill-opacity="1" fill-rule="nonzero"/><path fill="#b2b19f" d="M 730.273438 586.152344 C 710.617188 549.433594 682 526.761719 641.78125 501.738281 C 636.363281 498.382812 630.707031 494.929688 624.859375 491.429688 C 617.523438 487.019531 609.902344 482.515625 601.847656 477.769531 C 593.84375 473.023438 585.503906 468.179688 576.875 462.957031 L 495.523438 415.738281 L 472.226562 402.21875 L 395.910156 357.972656 C 379.039062 348.769531 363.648438 339.804688 348.695312 331.175781 C 342.367188 327.535156 336.230469 323.988281 330.140625 320.535156 C 321.320312 315.453125 312.742188 310.707031 304.351562 306.203125 C 257.566406 281.417969 216.386719 267.324219 166.003906 280.125 C 160.011719 281.660156 153.828125 283.527344 147.550781 285.828125 C 146.449219 286.308594 145.296875 286.789062 144.195312 287.265625 C 91.367188 310.515625 57.523438 368.757812 66.679688 421.394531 L 66.824219 422.351562 C 67.925781 427.339844 69.316406 432.035156 70.851562 436.542969 C 84.609375 476.761719 114.042969 500.105469 156.371094 527.71875 C 163.320312 532.320312 170.703125 536.96875 178.421875 541.90625 C 180.386719 543.203125 182.351562 544.449219 184.414062 545.742188 C 190.359375 549.53125 196.445312 553.460938 202.820312 557.632812 L 271.515625 600.246094 C 284.171875 608.109375 297.015625 616.066406 309.914062 624.121094 C 317.054688 628.53125 324.148438 632.941406 331.246094 637.300781 C 368.058594 660.121094 404.109375 682.507812 434.597656 701.394531 C 441.738281 705.660156 448.546875 709.78125 455.257812 713.808594 C 460.867188 717.214844 466.378906 720.519531 471.746094 723.734375 C 479.898438 728.574219 487.804688 733.222656 495.523438 737.585938 C 500.222656 740.222656 504.777344 742.765625 509.378906 745.160156 C 554.726562 768.890625 596.289062 780.96875 648.96875 765.390625 C 649.976562 765.101562 651.078125 764.765625 652.132812 764.429688 C 656.113281 763.136719 660.234375 761.746094 664.359375 760.117188 C 672.890625 756.761719 680.898438 752.542969 688.277344 747.652344 C 708.027344 734.710938 723.609375 716.542969 733.242188 694.875 C 748.871094 660.023438 747.816406 620.378906 730.273438 586.152344 Z M 728.402344 693.246094 C 719.628906 712.945312 705.777344 729.628906 688.328125 741.902344 C 680.417969 747.460938 671.742188 752.160156 662.535156 755.800781 C 658.269531 757.382812 654.148438 758.824219 650.074219 760.070312 C 648.777344 760.5 647.4375 760.882812 646.140625 761.265625 C 593.363281 776.558594 552.90625 763.28125 505.445312 737.347656 C 500.222656 734.46875 494.902344 731.5 489.4375 728.335938 C 483.683594 725.027344 477.835938 721.527344 471.796875 717.882812 C 467.386719 715.296875 462.976562 712.5625 458.375 709.832031 C 451.710938 705.804688 444.808594 701.632812 437.761719 697.464844 C 406.410156 678.050781 369.257812 654.992188 331.339844 631.503906 C 324.292969 627.09375 317.199219 622.730469 310.152344 618.273438 C 298.261719 610.890625 286.421875 603.554688 274.726562 596.316406 L 206.128906 553.699219 C 198.652344 548.859375 191.507812 544.304688 184.558594 539.894531 C 183.597656 539.222656 182.640625 538.601562 181.679688 538.023438 C 172.859375 532.417969 164.472656 527.046875 156.5625 521.871094 C 112.171875 492.582031 82.785156 467.84375 72.097656 421.394531 L 71.953125 420.578125 C 63.132812 369.71875 95.921875 313.585938 146.832031 291.4375 C 147.695312 291.054688 148.605469 290.671875 149.515625 290.285156 C 156.226562 287.84375 162.746094 285.828125 169.074219 284.292969 C 219.023438 272.023438 258.957031 287.074219 307.753906 313.679688 C 315.710938 318.042969 323.957031 322.644531 332.492188 327.582031 C 336.804688 330.121094 341.214844 332.710938 345.769531 335.300781 C 360.726562 343.976562 376.210938 352.890625 393.035156 362.097656 L 472.324219 408.117188 L 495.621094 421.632812 L 573.902344 467.078125 C 582.578125 472.253906 590.871094 477.144531 598.875 481.84375 C 607.984375 487.210938 616.613281 492.339844 624.859375 497.277344 C 630.707031 500.824219 636.363281 504.277344 641.78125 507.730469 C 679.746094 531.554688 706.925781 553.652344 725.621094 588.453125 C 728.304688 593.777344 730.65625 599.289062 732.476562 604.800781 C 742.398438 633.707031 741.058594 665.203125 728.496094 693.390625 Z M 728.402344 693.246094 " fill-opacity="1" fill-rule="nonzero"/><path fill="#b2b19f" d="M 724.710938 608.683594 C 724.710938 608.683594 724.710938 608.539062 724.710938 608.539062 C 711.671875 570.429688 680.226562 542.339844 641.492188 517.078125 C 635.980469 513.480469 630.324219 509.933594 624.570312 506.433594 C 609.902344 497.519531 594.464844 488.792969 578.839844 480.019531 C 560.671875 469.761719 541.832031 459.167969 524.238281 448.046875 L 495.570312 431.460938 L 472.273438 417.941406 L 391.023438 370.773438 C 373.910156 361.472656 358.136719 352.269531 342.941406 343.402344 C 340.257812 341.820312 337.621094 340.332031 335.03125 338.800781 C 327.121094 334.195312 319.355469 329.738281 311.828125 325.519531 C 264.660156 299.203125 222.761719 281.707031 173.820312 291.820312 C 168.066406 293.066406 162.171875 294.648438 156.128906 296.664062 C 154.308594 297.382812 152.535156 298.148438 150.761719 298.914062 C 104.3125 319.960938 73.390625 370.101562 79.816406 415.5 L 79.957031 416.457031 C 81.011719 421.730469 82.453125 426.714844 84.035156 431.460938 C 95.921875 466.214844 121.039062 487.644531 156.753906 511.515625 C 165.476562 517.363281 174.824219 523.402344 184.796875 529.78125 C 184.796875 529.78125 184.796875 529.875 184.796875 529.875 C 192.707031 534.910156 200.902344 540.132812 209.53125 545.789062 L 310.296875 608.300781 L 331.484375 621.484375 L 413.886719 672.632812 C 422.132812 677.664062 430.042969 682.554688 437.710938 687.347656 C 449.554688 694.683594 460.816406 701.683594 471.699219 708.25 C 475.152344 710.308594 478.601562 712.371094 482.007812 714.335938 C 488.140625 717.980469 494.183594 721.433594 500.078125 724.691406 C 527.257812 739.792969 552.136719 750.914062 576.875 755.996094 C 598.734375 760.789062 620.925781 759.972656 641.492188 754.171875 C 643.3125 753.644531 645.136719 753.117188 646.957031 752.496094 C 661.867188 747.558594 675.910156 739.984375 688.277344 729.773438 C 690.339844 728.09375 692.257812 726.371094 694.222656 724.546875 C 727.058594 693.773438 738.515625 650.4375 724.710938 608.636719 Z M 690.4375 721.433594 C 689.71875 722.101562 688.996094 722.773438 688.277344 723.347656 C 675.816406 734.566406 661.148438 742.8125 645.421875 748.035156 C 643.3125 748.757812 641.203125 749.378906 639.09375 749.90625 C 619.730469 755.226562 598.925781 755.851562 578.359375 751.390625 C 552.714844 746.121094 526.683594 734.039062 497.777344 717.789062 C 491.546875 714.242188 485.21875 710.503906 478.652344 706.621094 C 476.347656 705.179688 474 703.792969 471.699219 702.402344 C 461.777344 696.359375 451.566406 690.03125 440.828125 683.320312 C 433.160156 678.578125 425.199219 673.6875 417.003906 668.605469 L 331.578125 615.539062 L 310.34375 602.40625 L 212.648438 541.765625 C 204.066406 536.203125 195.871094 530.882812 187.960938 525.847656 C 186.90625 525.179688 185.804688 524.457031 184.75 523.835938 C 174.730469 517.460938 165.429688 511.46875 156.753906 505.570312 C 118.882812 479.828125 93.8125 456.578125 85.089844 415.402344 L 84.945312 414.636719 C 78.808594 371.15625 108.335938 323.265625 152.679688 303.183594 C 154.40625 302.367188 156.082031 301.648438 157.855469 300.976562 C 164.089844 298.914062 170.128906 297.285156 176.121094 296.085938 C 224.058594 286.5 264.46875 304.476562 313.363281 332.085938 C 320.746094 336.257812 328.222656 340.621094 335.988281 345.125 C 337.238281 345.894531 338.578125 346.660156 339.875 347.378906 C 355.070312 356.246094 370.886719 365.5 387.953125 374.75 L 472.179688 423.648438 L 495.476562 437.164062 L 521.027344 452.027344 C 538.714844 463.097656 557.554688 473.695312 575.769531 484 C 592.453125 493.394531 608.894531 502.695312 624.378906 512.234375 C 630.179688 515.734375 635.835938 519.378906 641.300781 523.019531 C 677.875 547.277344 707.261719 574.21875 719.535156 610.074219 C 719.535156 610.074219 719.535156 610.074219 719.535156 610.171875 C 732.8125 650.339844 721.835938 691.949219 690.339844 721.382812 Z M 690.4375 721.433594 " fill-opacity="1" fill-rule="nonzero"/><path fill="#b2b19f" d="M 688.277344 572.683594 C 685.929688 569.949219 683.390625 567.265625 680.753906 564.628906 C 669.488281 553.460938 656.015625 543.296875 641.203125 533.472656 C 635.738281 529.828125 630.082031 526.28125 624.28125 522.683594 C 614.121094 516.453125 603.574219 510.269531 592.742188 503.894531 C 581.523438 497.277344 569.875 490.472656 558.226562 483.328125 L 495.523438 446.992188 L 472.226562 433.472656 L 383.351562 382.039062 C 366.621094 373.027344 351.136719 363.964844 336.039062 355.195312 C 328.894531 351.023438 321.945312 346.949219 315.136719 343.066406 C 274.964844 320.105469 239.445312 302.65625 200.519531 302.65625 C 193.808594 302.65625 186.90625 303.183594 179.957031 304.332031 C 174.824219 305.097656 169.554688 306.25 164.183594 307.734375 C 161.308594 308.789062 158.429688 309.941406 155.652344 311.234375 C 116.199219 329.5 89.019531 371.109375 92.855469 409.601562 L 92.949219 410.5625 C 94.003906 416.167969 95.441406 421.492188 97.121094 426.523438 C 107.1875 455.910156 127.800781 475.226562 156.992188 495.503906 C 165.574219 501.496094 174.875 507.585938 184.941406 514.007812 C 187.335938 515.542969 189.734375 517.078125 192.179688 518.660156 C 200.089844 523.738281 208.332031 529.011719 216.960938 534.667969 C 245.246094 552.167969 277.601562 572.203125 310.535156 592.625 C 317.582031 596.988281 324.675781 601.398438 331.773438 605.761719 C 335.222656 607.917969 338.722656 610.074219 342.222656 612.183594 L 405.257812 651.253906 C 422.179688 660.839844 439.054688 671.578125 455.351562 681.882812 C 460.816406 685.382812 466.28125 688.882812 471.746094 692.238281 C 472.609375 692.863281 473.570312 693.4375 474.480469 693.964844 C 481.285156 698.230469 488.140625 702.449219 494.949219 706.425781 C 541.113281 733.703125 586.554688 753.261719 635.070312 741.804688 C 637.707031 741.183594 640.390625 740.460938 643.027344 739.695312 C 644.082031 739.410156 645.230469 739.074219 646.285156 738.6875 C 662.394531 732.984375 676.820312 723.300781 688.328125 711.078125 C 702.753906 695.832031 712.582031 676.660156 715.410156 656.382812 C 718.671875 621.292969 707.789062 594.878906 688.328125 572.636719 Z M 710.089844 656.140625 C 707.695312 673.542969 699.832031 690.128906 688.277344 703.839844 C 676.773438 717.453125 661.675781 728.285156 644.609375 734.328125 C 643.699219 734.613281 642.785156 734.949219 641.875 735.191406 C 638.953125 736.101562 636.027344 736.867188 633.152344 737.492188 C 585.695312 748.179688 540.632812 728 494.519531 700.433594 C 487.230469 696.074219 479.945312 691.519531 472.5625 686.871094 C 472.324219 686.726562 472.035156 686.535156 471.746094 686.34375 C 467.386719 683.609375 462.976562 680.828125 458.566406 678 C 442.171875 667.597656 425.25 656.859375 408.277344 647.226562 L 345.386719 608.253906 C 340.878906 605.472656 336.375 602.738281 331.867188 599.910156 C 324.820312 595.5 317.679688 591.089844 310.632812 586.777344 C 278.707031 566.980469 247.5 547.660156 220.175781 530.738281 C 211.546875 525.082031 203.300781 519.761719 195.390625 514.726562 C 191.84375 512.523438 188.441406 510.269531 185.035156 508.160156 C 174.96875 501.6875 165.621094 495.554688 157.089844 489.464844 C 125.691406 467.078125 105.078125 445.554688 98.175781 409.648438 L 98.078125 408.882812 C 94.578125 372.449219 120.035156 333.191406 157.089844 315.789062 C 159.917969 314.398438 162.792969 313.25 165.71875 312.144531 C 171.136719 310.613281 176.457031 309.507812 181.730469 308.742188 C 227.605469 301.933594 267.917969 321.734375 314.992188 348.769531 C 320.890625 352.171875 326.882812 355.671875 332.96875 359.21875 C 333.882812 359.796875 334.933594 360.371094 335.894531 360.945312 C 349.988281 369.238281 364.65625 377.722656 380.378906 386.207031 L 472.179688 439.371094 L 495.476562 452.839844 L 555.109375 487.355469 C 566.757812 494.546875 578.40625 501.351562 589.671875 507.96875 C 601.5625 514.917969 613.113281 521.679688 624.140625 528.582031 C 629.941406 532.175781 635.597656 535.820312 641.011719 539.511719 C 652.804688 547.566406 663.6875 555.808594 673.128906 564.679688 C 678.691406 569.902344 683.726562 575.320312 688.183594 581.023438 C 704.195312 601.351562 712.871094 625.316406 709.996094 656.191406 Z M 710.089844 656.140625 " fill-opacity="1" fill-rule="nonzero"/><path fill="#b2b19f" d="M 702.421875 633.324219 C 699.832031 619.519531 694.941406 607.390625 688.277344 596.605469 C 680.945312 584.667969 671.40625 574.21875 660.285156 564.628906 C 654.292969 559.40625 647.820312 554.46875 640.917969 549.625 C 635.5 545.839844 629.84375 542.101562 623.996094 538.410156 C 612.96875 531.457031 601.320312 524.652344 589.242188 517.605469 C 577.878906 511.035156 566.136719 504.179688 554.199219 496.75 L 495.523438 462.859375 L 472.226562 449.390625 L 424.339844 421.683594 C 406.21875 412.382812 386.226562 400.300781 365.136719 387.550781 C 355.5 381.75 345.722656 375.804688 335.847656 370.007812 C 328.894531 365.882812 321.898438 361.808594 314.898438 357.878906 C 269.40625 332.375 223.242188 312.144531 184.507812 316.746094 C 175.640625 317.800781 167.15625 320.105469 159.152344 323.988281 C 157.28125 324.898438 155.507812 325.808594 153.734375 326.863281 C 128.710938 341.4375 104.3125 370.917969 106.277344 404.089844 L 106.277344 405 C 107.1875 410.65625 108.53125 416.027344 110.253906 421.105469 C 118.355469 444.738281 135.183594 462.238281 157.328125 478.824219 C 165.910156 485.246094 175.304688 491.527344 185.324219 498.046875 C 190.117188 501.160156 195.054688 504.277344 200.136719 507.539062 C 207.902344 512.476562 215.859375 517.605469 224.007812 523.019531 C 250.277344 539.222656 280.144531 557.726562 310.824219 576.710938 C 317.820312 581.074219 324.964844 585.433594 332.058594 589.796875 C 333.019531 590.371094 334.023438 590.996094 334.984375 591.570312 L 401.902344 632.941406 C 419.542969 642.863281 437.761719 654.464844 455.304688 665.730469 C 460.578125 669.085938 465.851562 672.488281 471.171875 675.796875 C 471.363281 675.941406 471.554688 676.082031 471.796875 676.226562 C 479.371094 681.070312 486.992188 685.765625 494.613281 690.320312 C 539.914062 717.40625 585.742188 738.355469 630.132812 729.535156 C 633.390625 728.957031 636.601562 728.144531 639.816406 727.183594 C 639.957031 727.183594 640.101562 727.039062 640.246094 726.992188 C 660.285156 720.28125 677.15625 706.523438 688.328125 689.507812 C 699.351562 672.824219 704.863281 652.882812 702.46875 633.417969 Z M 688.277344 679.582031 C 678.210938 698.804688 660.761719 714.769531 639.527344 722.199219 C 639.09375 722.390625 638.664062 722.488281 638.234375 722.679688 C 635.070312 723.636719 631.855469 724.453125 628.644531 725.027344 C 585.359375 733.367188 539.722656 711.796875 494.566406 684.519531 C 486.894531 679.871094 479.320312 675.125 471.746094 670.285156 C 471.554688 670.140625 471.363281 670.042969 471.171875 669.898438 C 466.90625 667.214844 462.734375 664.53125 458.46875 661.796875 C 440.828125 650.484375 422.5625 638.835938 404.875 628.867188 L 338.050781 587.59375 C 336.039062 586.34375 334.121094 585.148438 332.15625 583.949219 C 325.109375 579.539062 317.964844 575.175781 310.917969 570.863281 C 281.34375 552.503906 252.578125 534.71875 227.222656 519.089844 C 219.023438 513.671875 210.96875 508.542969 203.203125 503.605469 C 197.070312 499.675781 191.078125 495.886719 185.277344 492.054688 C 175.210938 485.535156 165.863281 479.109375 157.328125 472.496094 C 133.121094 453.703125 116.007812 433.472656 111.5 404.234375 L 111.5 403.5625 C 109.632812 372.355469 132.640625 344.503906 156.417969 330.746094 C 157.519531 330.074219 158.71875 329.402344 159.871094 328.828125 C 167.875 324.707031 176.503906 322.308594 185.613281 321.300781 C 223.433594 317.179688 269.359375 337.9375 314.707031 363.535156 C 321.703125 367.511719 328.703125 371.589844 335.65625 375.710938 C 344.523438 380.984375 353.296875 386.257812 361.972656 391.480469 C 383.160156 404.28125 403.199219 416.359375 421.316406 425.757812 L 472.132812 455.09375 L 495.429688 468.5625 L 551.035156 500.730469 C 562.972656 508.160156 574.714844 514.96875 586.125 521.628906 C 599.5 529.445312 612.105469 536.828125 623.804688 544.304688 C 629.699219 548.042969 635.308594 551.832031 640.675781 555.664062 C 644.753906 558.589844 648.730469 561.5625 652.46875 564.628906 C 667.761719 577.046875 680.082031 590.707031 688.183594 607.246094 C 692.257812 615.441406 695.277344 624.359375 697.097656 634.1875 C 698.96875 649.71875 695.515625 665.488281 688.183594 679.582031 Z M 688.277344 679.582031 " fill-opacity="1" fill-rule="nonzero"/><g clip-path="url(#a17bb700fb)"><g clip-path="url(#f323eee61f)"><path fill="#5543c1" d="M 390.109375 807.957031 L 67.398438 807.957031 C 77.753906 804.699219 94.4375 806.519531 117.253906 774.449219 C 140.648438 741.515625 154.597656 695.066406 153.445312 685.429688 C 154.117188 650.199219 154.742188 614.867188 155.460938 579.585938 C 155.460938 577.71875 155.460938 575.800781 155.554688 573.929688 C 155.554688 573.449219 155.554688 572.921875 155.601562 572.445312 C 155.554688 570.671875 155.601562 568.894531 155.699219 567.121094 L 155.699219 566.59375 C 155.699219 564.871094 155.699219 563.144531 155.796875 561.371094 C 155.796875 560.746094 155.796875 560.125 155.796875 559.546875 C 155.796875 557.582031 155.84375 555.617188 155.84375 553.652344 C 155.84375 552.980469 155.84375 552.359375 155.84375 551.734375 C 155.890625 549.816406 155.890625 547.898438 155.988281 545.984375 C 155.988281 545.214844 155.988281 544.449219 155.988281 543.730469 C 155.988281 541.8125 156.035156 539.796875 156.082031 537.832031 C 156.082031 537.304688 156.128906 536.777344 156.128906 536.25 C 156.128906 534.382812 156.128906 532.417969 156.226562 530.546875 C 156.226562 529.636719 156.226562 528.726562 156.226562 527.8125 C 156.226562 525.847656 156.273438 523.835938 156.324219 521.917969 C 156.324219 521.488281 156.371094 521.101562 156.371094 520.671875 C 156.371094 518.800781 156.371094 516.886719 156.464844 515.015625 C 156.464844 513.863281 156.464844 512.761719 156.464844 511.613281 C 156.464844 509.644531 156.464844 507.679688 156.5625 505.761719 L 156.5625 505.378906 C 156.609375 503.460938 156.609375 501.59375 156.707031 499.675781 C 156.707031 498.332031 156.753906 496.992188 156.800781 495.648438 C 156.800781 493.730469 156.851562 491.765625 156.898438 489.800781 L 156.898438 489.65625 C 156.898438 487.785156 156.945312 485.917969 156.945312 484.046875 C 156.945312 482.320312 156.945312 480.691406 157.042969 478.964844 C 157.042969 476.90625 157.136719 474.75 157.136719 472.6875 C 158.046875 425.277344 158.957031 377.722656 159.871094 330.3125 C 159.820312 329.882812 159.773438 329.453125 159.679688 329.019531 C 159.484375 327.535156 159.246094 325.953125 158.863281 324.128906 C 158.480469 322.117188 158 319.910156 157.328125 317.5625 C 157.183594 317.035156 157.042969 316.507812 156.898438 315.933594 C 156.609375 314.972656 156.324219 314.0625 156.035156 313.058594 C 155.84375 312.480469 155.699219 311.90625 155.460938 311.332031 C 154.882812 309.414062 154.164062 307.351562 153.253906 305.292969 C 153.015625 304.667969 152.726562 303.996094 152.488281 303.375 C 152.152344 302.558594 151.769531 301.742188 151.386719 300.976562 C 151.097656 300.355469 150.859375 299.683594 150.523438 299.105469 C 149.609375 297.140625 148.554688 295.082031 147.453125 293.019531 C 147.167969 292.539062 146.878906 292.011719 146.589844 291.53125 C 146.0625 290.621094 145.535156 289.757812 144.914062 288.847656 C 144.625 288.371094 144.339844 287.9375 144.050781 287.457031 C 142.804688 285.492188 141.414062 283.433594 139.929688 281.417969 C 139.640625 281.035156 139.351562 280.652344 139.066406 280.269531 C 138.347656 279.308594 137.578125 278.398438 136.8125 277.441406 C 136.765625 277.441406 136.765625 277.441406 136.765625 277.441406 C 136.523438 277.152344 136.285156 276.816406 135.996094 276.527344 C 134.078125 274.226562 132.164062 272.023438 130.054688 269.960938 C 130.003906 269.960938 129.957031 269.867188 129.910156 269.816406 C 128.757812 268.570312 127.558594 267.46875 126.3125 266.269531 C 124.683594 264.6875 123.054688 263.25 121.375 261.90625 C 120.511719 261.140625 119.601562 260.421875 118.738281 259.800781 C 118.261719 259.414062 117.828125 259.03125 117.300781 258.695312 C 122.480469 256.011719 127.800781 253.519531 133.3125 251.3125 C 140.886719 248.199219 148.652344 245.65625 156.800781 243.644531 C 171.46875 239.472656 186.042969 237.507812 200.472656 237.460938 C 200.472656 237.460938 200.566406 237.460938 200.566406 237.460938 C 211.304688 238.851562 222.042969 241.054688 232.6875 243.933594 C 234.746094 244.699219 236.808594 245.515625 238.964844 246.375 L 239.015625 246.375 C 246.492188 249.445312 254.160156 253.472656 261.832031 258.550781 C 262.070312 258.695312 262.3125 258.886719 262.550781 259.078125 C 266.003906 261.378906 269.359375 263.921875 272.808594 266.75 C 273.625 267.421875 274.4375 268.140625 275.207031 268.8125 C 275.253906 268.8125 275.253906 268.8125 275.253906 268.8125 C 276.453125 269.867188 277.601562 270.871094 278.707031 271.925781 C 282.011719 274.996094 284.984375 278.160156 287.71875 281.324219 C 288.484375 282.234375 289.300781 283.144531 289.96875 284.054688 C 292.273438 286.929688 294.382812 289.757812 296.25 292.636719 C 297.066406 293.929688 297.878906 295.175781 298.648438 296.421875 C 300.324219 299.058594 301.714844 301.648438 303.058594 304.285156 C 303.441406 305.003906 303.777344 305.722656 304.113281 306.394531 C 305.359375 308.933594 306.460938 311.425781 307.417969 313.777344 C 307.804688 314.832031 308.1875 315.789062 308.570312 316.796875 C 309.433594 319.191406 310.246094 321.492188 310.871094 323.601562 C 311.109375 324.320312 311.300781 325.042969 311.496094 325.710938 C 312.117188 328.0625 312.644531 330.265625 313.125 332.28125 C 313.316406 333.09375 313.460938 333.910156 313.605469 334.628906 C 314.082031 337.023438 314.371094 339.132812 314.660156 340.765625 C 314.753906 341.628906 314.800781 342.347656 314.851562 342.921875 L 314.851562 343.210938 C 314.800781 345.078125 314.753906 346.996094 314.753906 348.867188 L 314.753906 350.542969 C 314.707031 352.414062 314.660156 354.234375 314.609375 356.105469 C 314.609375 356.726562 314.609375 357.398438 314.609375 357.972656 C 314.609375 359.84375 314.5625 361.761719 314.515625 363.628906 L 314.515625 364.925781 C 314.464844 366.746094 314.417969 368.617188 314.371094 370.484375 C 313.171875 437.261719 311.925781 504.132812 310.726562 570.957031 C 310.726562 571.820312 310.726562 572.683594 310.726562 573.5 C 310.679688 574.601562 310.679688 575.609375 310.632812 576.710938 C 310.632812 577.523438 310.582031 578.339844 310.582031 579.105469 C 310.582031 581.695312 310.582031 584.285156 310.488281 586.871094 C 310.488281 587.59375 310.488281 588.359375 310.488281 589.03125 C 310.441406 590.277344 310.441406 591.425781 310.441406 592.671875 C 310.441406 593.34375 310.441406 594.0625 310.441406 594.734375 C 310.34375 597.324219 310.296875 599.910156 310.296875 602.5 C 310.296875 603.125 310.296875 603.746094 310.296875 604.320312 C 310.296875 605.664062 310.296875 606.957031 310.296875 608.300781 C 310.296875 608.875 310.25 609.449219 310.25 610.027344 L 310.105469 618.269531 C 310.105469 618.796875 310.054688 619.277344 310.054688 619.804688 C 310.054688 621.292969 310.054688 622.683594 309.960938 624.167969 L 309.960938 625.511719 C 309.863281 628.339844 309.863281 631.214844 309.816406 634.089844 L 309.816406 635.191406 C 309.769531 636.824219 309.722656 638.355469 309.722656 639.988281 C 309.671875 640.273438 309.671875 640.609375 309.671875 640.945312 C 309.671875 643.917969 309.578125 646.84375 309.480469 649.863281 L 309.480469 650.726562 C 309.480469 652.402344 309.480469 654.082031 309.480469 655.757812 L 309.480469 656.429688 C 309.433594 658.539062 309.386719 660.695312 309.335938 662.804688 L 309.335938 663.285156 C 309.289062 665.058594 309.242188 666.878906 309.242188 668.605469 L 309.242188 668.894531 C 309.097656 674.933594 309.050781 681.070312 308.90625 687.109375 C 308.617188 699.238281 309.769531 739.984375 347.160156 775.839844 C 362.257812 790.414062 378.03125 803.210938 390.207031 808.148438 Z M 390.109375 807.957031 " fill-opacity="1" fill-rule="nonzero"/></g></g><g clip-path="url(#966abd820b)"><g clip-path="url(#ce867f5511)"><path fill="#5543c1" d="M 679.121094 794.582031 C 677.589844 795.160156 676.152344 795.78125 674.617188 796.355469 C 663.878906 800.480469 652.902344 803.644531 641.921875 805.847656 C 629.363281 808.390625 616.757812 809.730469 604.53125 809.730469 C 602.949219 809.730469 601.464844 809.730469 599.929688 809.683594 C 597.054688 809.683594 594.226562 809.539062 591.398438 809.347656 C 556.691406 807.429688 522.65625 796.023438 479.371094 772.292969 C 477.691406 771.335938 476.109375 770.421875 474.433594 769.417969 C 474.046875 769.226562 473.234375 768.699219 473.234375 768.699219 L 473.234375 185.542969 C 473.570312 185.066406 474 184.683594 474.433594 184.347656 C 475.292969 183.820312 476.347656 183.484375 477.402344 183.484375 L 504.007812 183.484375 C 515.324219 184.25 553 188.230469 585.835938 217.804688 C 621.980469 250.453125 627.0625 291.484375 627.972656 301.167969 C 627.972656 301.167969 627.972656 301.214844 627.972656 301.265625 C 627.351562 340.332031 626.679688 379.355469 626.007812 418.375 C 626.007812 420.339844 625.914062 422.449219 625.863281 424.460938 C 625.863281 426.859375 625.863281 429.351562 625.722656 431.796875 C 625.722656 433.808594 625.671875 435.824219 625.671875 437.835938 C 625.671875 441.191406 625.578125 444.5 625.480469 447.855469 L 625.480469 448.191406 C 625.480469 450.011719 625.480469 451.785156 625.386719 453.558594 L 625.386719 454.328125 C 625.386719 456.386719 625.289062 458.449219 625.289062 460.464844 C 625.289062 461.949219 625.195312 463.433594 625.195312 464.921875 L 625.195312 466.214844 C 625.195312 467.84375 625.195312 469.476562 625.097656 471.152344 C 625.097656 472.78125 625.097656 474.316406 625.003906 475.945312 C 625.003906 477.671875 625.003906 479.492188 624.90625 481.269531 L 624.90625 481.601562 C 624.90625 483.570312 624.859375 485.582031 624.808594 487.59375 C 624.808594 488.890625 624.808594 490.089844 624.808594 491.382812 C 624.808594 493.25 624.808594 495.21875 624.714844 497.085938 L 624.714844 498.667969 C 624.714844 500.730469 624.617188 502.886719 624.570312 504.996094 C 624.570312 505.476562 624.570312 505.957031 624.523438 506.433594 C 624.523438 508.351562 624.523438 510.316406 624.425781 512.234375 C 624.425781 513.480469 624.425781 514.632812 624.425781 515.878906 C 624.425781 517.941406 624.378906 520.097656 624.332031 522.207031 L 624.332031 522.636719 C 624.28125 524.554688 624.28125 526.566406 624.234375 528.484375 C 624.140625 531.792969 624.042969 535.054688 624.042969 538.3125 C 624.042969 540.277344 623.996094 542.292969 623.949219 544.257812 C 623.851562 551.015625 623.753906 557.773438 623.613281 564.582031 C 623.035156 601.683594 622.414062 638.882812 621.742188 676.035156 C 621.648438 680.351562 621.597656 688.644531 622.941406 699.1875 C 623.132812 700.820312 623.421875 702.449219 623.660156 704.222656 C 624.089844 707.003906 624.667969 709.925781 625.386719 712.996094 C 625.769531 714.625 626.105469 716.207031 626.585938 717.882812 C 627.113281 720.1875 627.78125 722.628906 628.597656 725.027344 C 628.742188 725.601562 628.933594 726.179688 629.125 726.753906 C 629.414062 727.664062 629.699219 728.527344 630.035156 729.484375 C 630.226562 730.15625 630.46875 730.828125 630.707031 731.449219 C 631.425781 733.417969 632.242188 735.476562 633.105469 737.492188 C 633.34375 738.160156 633.632812 738.832031 633.917969 739.457031 C 634.253906 740.269531 634.636719 741.039062 634.972656 741.804688 C 635.308594 742.574219 635.644531 743.292969 636.027344 744.011719 C 636.9375 745.929688 637.945312 747.941406 639 749.859375 C 639.527344 750.816406 640.054688 751.726562 640.628906 752.6875 C 640.871094 753.167969 641.15625 753.597656 641.445312 754.078125 C 641.972656 755.082031 642.59375 756.089844 643.265625 757.097656 C 644.128906 758.488281 645.039062 759.78125 646 761.171875 C 646.71875 762.324219 647.53125 763.378906 648.347656 764.527344 C 648.539062 764.765625 648.683594 765.054688 648.875 765.292969 C 649.738281 766.492188 650.648438 767.59375 651.558594 768.699219 C 652.660156 770.183594 653.859375 771.527344 655.058594 772.964844 C 655.347656 773.300781 655.632812 773.683594 655.921875 774.019531 C 656.738281 774.976562 657.597656 775.839844 658.511719 776.800781 C 658.703125 776.992188 658.894531 777.230469 659.085938 777.421875 C 659.230469 777.566406 659.421875 777.804688 659.613281 777.996094 C 661.433594 779.820312 663.207031 781.59375 665.03125 783.222656 C 666.371094 784.515625 667.667969 785.667969 668.960938 786.816406 C 670.828125 788.398438 672.652344 789.839844 674.519531 791.277344 C 676.054688 792.425781 677.542969 793.480469 679.027344 794.582031 Z M 679.121094 794.582031 " fill-opacity="1" fill-rule="nonzero"/></g></g><path fill="#5543c1" d="M 328.703125 97.195312 C 328.703125 98.78125 328.664062 100.367188 328.582031 101.953125 C 328.503906 103.539062 328.382812 105.117188 328.222656 106.699219 C 328.0625 108.277344 327.863281 109.851562 327.621094 111.417969 C 327.382812 112.988281 327.101562 114.550781 326.785156 116.105469 C 326.464844 117.664062 326.105469 119.210938 325.707031 120.75 C 325.3125 122.289062 324.875 123.816406 324.398438 125.332031 C 323.925781 126.851562 323.414062 128.355469 322.859375 129.851562 C 322.308594 131.34375 321.722656 132.824219 321.09375 134.289062 C 320.46875 135.753906 319.808594 137.203125 319.109375 138.640625 C 318.40625 140.074219 317.671875 141.488281 316.902344 142.886719 C 316.128906 144.289062 315.324219 145.667969 314.484375 147.027344 C 313.644531 148.386719 312.769531 149.726562 311.859375 151.046875 C 310.949219 152.367188 310.007812 153.664062 309.035156 154.9375 C 308.058594 156.210938 307.054688 157.460938 306.015625 158.6875 C 304.980469 159.914062 303.910156 161.113281 302.8125 162.289062 C 301.714844 163.464844 300.585938 164.613281 299.429688 165.734375 C 298.273438 166.855469 297.089844 167.949219 295.875 169.015625 C 294.664062 170.082031 293.425781 171.117188 292.160156 172.125 C 290.898438 173.128906 289.609375 174.105469 288.292969 175.050781 C 286.980469 175.996094 285.644531 176.910156 284.285156 177.789062 C 282.921875 178.671875 281.542969 179.519531 280.140625 180.335938 C 278.734375 181.152344 277.3125 181.933594 275.871094 182.679688 C 274.429688 183.429688 272.96875 184.140625 271.488281 184.820312 C 270.011719 185.496094 268.515625 186.140625 267.003906 186.746094 C 265.492188 187.355469 263.96875 187.925781 262.425781 188.460938 C 260.886719 188.992188 259.335938 189.492188 257.769531 189.953125 C 256.203125 190.410156 254.628906 190.835938 253.039062 191.21875 C 251.453125 191.605469 249.859375 191.953125 248.253906 192.261719 C 246.648438 192.574219 245.039062 192.84375 243.421875 193.078125 C 241.800781 193.308594 240.179688 193.503906 238.550781 193.660156 C 236.925781 193.8125 235.292969 193.929688 233.660156 194.007812 C 232.027344 194.085938 230.390625 194.125 228.753906 194.125 C 227.121094 194.125 225.484375 194.085938 223.851562 194.007812 C 222.21875 193.929688 220.585938 193.8125 218.957031 193.660156 C 217.332031 193.503906 215.707031 193.308594 214.089844 193.074219 C 212.472656 192.84375 210.859375 192.574219 209.257812 192.261719 C 207.652344 191.953125 206.054688 191.605469 204.46875 191.21875 C 202.882812 190.835938 201.308594 190.410156 199.742188 189.953125 C 198.175781 189.492188 196.625 188.992188 195.082031 188.460938 C 193.542969 187.925781 192.019531 187.355469 190.507812 186.746094 C 188.996094 186.140625 187.5 185.496094 186.023438 184.820312 C 184.542969 184.140625 183.082031 183.429688 181.640625 182.679688 C 180.195312 181.933594 178.773438 181.152344 177.371094 180.335938 C 175.96875 179.519531 174.585938 178.671875 173.226562 177.789062 C 171.867188 176.910156 170.53125 175.996094 169.214844 175.050781 C 167.902344 174.105469 166.613281 173.128906 165.347656 172.125 C 164.082031 171.117188 162.847656 170.082031 161.632812 169.015625 C 160.421875 167.949219 159.238281 166.855469 158.082031 165.734375 C 156.925781 164.613281 155.796875 163.464844 154.699219 162.289062 C 153.601562 161.113281 152.53125 159.914062 151.492188 158.6875 C 150.457031 157.460938 149.449219 156.210938 148.476562 154.9375 C 147.5 153.664062 146.558594 152.367188 145.652344 151.046875 C 144.742188 149.726562 143.867188 148.386719 143.027344 147.027344 C 142.183594 145.667969 141.378906 144.289062 140.609375 142.886719 C 139.835938 141.488281 139.101562 140.074219 138.402344 138.640625 C 137.703125 137.203125 137.039062 135.753906 136.414062 134.289062 C 135.789062 132.824219 135.199219 131.34375 134.648438 129.851562 C 134.097656 128.355469 133.585938 126.851562 133.109375 125.332031 C 132.636719 123.816406 132.199219 122.289062 131.800781 120.75 C 131.40625 119.210938 131.046875 117.664062 130.726562 116.105469 C 130.40625 114.550781 130.128906 112.988281 129.886719 111.417969 C 129.648438 109.851562 129.449219 108.277344 129.289062 106.699219 C 129.128906 105.117188 129.007812 103.539062 128.925781 101.953125 C 128.847656 100.367188 128.804688 98.78125 128.804688 97.195312 C 128.804688 95.609375 128.847656 94.023438 128.925781 92.441406 C 129.007812 90.855469 129.128906 89.273438 129.289062 87.695312 C 129.449219 86.117188 129.648438 84.542969 129.886719 82.972656 C 130.128906 81.40625 130.40625 79.84375 130.726562 78.285156 C 131.046875 76.730469 131.40625 75.183594 131.800781 73.644531 C 132.199219 72.105469 132.636719 70.578125 133.109375 69.058594 C 133.585938 67.542969 134.097656 66.035156 134.648438 64.542969 C 135.199219 63.050781 135.789062 61.570312 136.414062 60.105469 C 137.039062 58.636719 137.703125 57.1875 138.402344 55.753906 C 139.101562 54.320312 139.835938 52.902344 140.609375 51.503906 C 141.378906 50.105469 142.183594 48.726562 143.027344 47.367188 C 143.867188 46.003906 144.742188 44.664062 145.652344 43.347656 C 146.558594 42.027344 147.5 40.730469 148.476562 39.457031 C 149.449219 38.183594 150.457031 36.933594 151.492188 35.707031 C 152.53125 34.480469 153.601562 33.277344 154.699219 32.105469 C 155.796875 30.929688 156.925781 29.78125 158.082031 28.65625 C 159.238281 27.535156 160.421875 26.441406 161.632812 25.378906 C 162.847656 24.3125 164.082031 23.277344 165.347656 22.269531 C 166.613281 21.261719 167.902344 20.289062 169.214844 19.34375 C 170.53125 18.398438 171.867188 17.484375 173.226562 16.605469 C 174.585938 15.722656 175.96875 14.875 177.371094 14.058594 C 178.773438 13.242188 180.195312 12.460938 181.640625 11.714844 C 183.082031 10.964844 184.542969 10.253906 186.023438 9.574219 C 187.5 8.894531 188.996094 8.253906 190.507812 7.644531 C 192.019531 7.039062 193.542969 6.46875 195.082031 5.933594 C 196.625 5.398438 198.175781 4.902344 199.742188 4.441406 C 201.308594 3.980469 202.882812 3.558594 204.46875 3.171875 C 206.054688 2.789062 207.652344 2.441406 209.257812 2.128906 C 210.859375 1.820312 212.472656 1.550781 214.089844 1.316406 C 215.707031 1.085938 217.332031 0.890625 218.957031 0.734375 C 220.585938 0.578125 222.21875 0.460938 223.851562 0.386719 C 225.484375 0.308594 227.121094 0.269531 228.753906 0.269531 C 230.390625 0.269531 232.027344 0.308594 233.660156 0.386719 C 235.292969 0.460938 236.925781 0.578125 238.550781 0.734375 C 240.179688 0.890625 241.800781 1.085938 243.421875 1.316406 C 245.039062 1.550781 246.648438 1.820312 248.253906 2.128906 C 249.859375 2.441406 251.453125 2.789062 253.039062 3.171875 C 254.628906 3.558594 256.203125 3.980469 257.769531 4.441406 C 259.335938 4.902344 260.886719 5.398438 262.425781 5.933594 C 263.96875 6.46875 265.492188 7.039062 267.003906 7.644531 C 268.515625 8.253906 270.011719 8.894531 271.488281 9.574219 C 272.96875 10.253906 274.429688 10.964844 275.871094 11.714844 C 277.3125 12.460938 278.734375 13.242188 280.140625 14.058594 C 281.542969 14.875 282.921875 15.722656 284.285156 16.605469 C 285.644531 17.484375 286.980469 18.398438 288.292969 19.34375 C 289.609375 20.289062 290.898438 21.261719 292.160156 22.269531 C 293.425781 23.277344 294.664062 24.3125 295.875 25.378906 C 297.089844 26.441406 298.273438 27.535156 299.429688 28.65625 C 300.585938 29.78125 301.714844 30.929688 302.8125 32.105469 C 303.910156 33.277344 304.980469 34.480469 306.015625 35.707031 C 307.054688 36.933594 308.058594 38.183594 309.035156 39.457031 C 310.007812 40.730469 310.949219 42.027344 311.859375 43.347656 C 312.769531 44.664062 313.644531 46.003906 314.484375 47.367188 C 315.324219 48.726562 316.128906 50.105469 316.902344 51.503906 C 317.671875 52.902344 318.40625 54.320312 319.109375 55.753906 C 319.808594 57.1875 320.46875 58.636719 321.09375 60.105469 C 321.722656 61.570312 322.308594 63.050781 322.859375 64.542969 C 323.414062 66.035156 323.925781 67.542969 324.398438 69.058594 C 324.875 70.578125 325.3125 72.105469 325.707031 73.644531 C 326.105469 75.183594 326.464844 76.730469 326.785156 78.285156 C 327.101562 79.84375 327.382812 81.40625 327.621094 82.972656 C 327.863281 84.542969 328.0625 86.117188 328.222656 87.695312 C 328.382812 89.273438 328.503906 90.855469 328.582031 92.441406 C 328.664062 94.023438 328.703125 95.609375 328.703125 97.195312 Z M 328.703125 97.195312 " fill-opacity="1" fill-rule="nonzero"/></svg>